<?xml version="1.0" encoding="utf-8"?>
<!-- Generator: Adobe Illustrator 22.1.0, SVG Export Plug-In . SVG Version: 6.00 Build 0)  -->
<svg version="1.1" id="Laag_1" xmlns="http://www.w3.org/2000/svg" xmlns:xlink="http://www.w3.org/1999/xlink" x="0px" y="0px"
	 viewBox="0 0 280.1 64" style="enable-background:new 0 0 280.1 64;" xml:space="preserve">
<style type="text/css">
	.st0{fill:#5DC5EA;}
	.st1{fill:#1D1D1B;}
	.st2{fill:#FFFFFF;}
</style>
<title>Middel 2</title>
<g id="Laag_2_1_">
	<g id="Logo">
		<path d="M192.4,17.4c0,1.1-0.7,1.8-1.9,1.8c-0.8,0-1.6-0.5-1.8-1.3l0.6-0.3c0.2,0.7,0.6,1.1,1.2,1.1c0.6,0.1,1.1-0.4,1.2-1
			c0,0,0-0.1,0-0.1c0-0.5-0.3-0.9-0.9-1.2l-0.7-0.3c-0.8-0.3-1.1-0.8-1.1-1.5c0-0.8,0.7-1.4,1.6-1.4c0.6,0,1.2,0.3,1.5,0.9l-0.6,0.4
			c-0.2-0.4-0.6-0.6-1-0.7c-0.5,0-0.8,0.3-0.9,0.8c0,0,0,0,0,0.1c0,0.4,0.3,0.7,0.8,0.9l0.8,0.4C192,16.1,192.4,16.7,192.4,17.4z"/>
		<path d="M194.6,13.9h-1.6v-0.7h4v0.7h-1.6V19h-0.7L194.6,13.9z"/>
		<path d="M197.8,13.3h1.4c0.6,0,1,0,1.3,0.3c0.4,0.3,0.6,0.8,0.5,1.3c0,0.9-0.5,1.4-1.6,1.4h-0.1l2.2,2.8h-0.9l-2.1-2.8h-0.1V19
			h-0.7L197.8,13.3z M198.5,15.8h0.5c0.9,0,1.4-0.1,1.4-0.9s-0.4-1-1.4-1h-0.5V15.8z"/>
		<path d="M206.8,19h-0.7l-0.8-1.8h-2.3l-0.8,1.8h-0.7l2.6-6L206.8,19z M203.3,16.7h1.8l-0.9-2.1L203.3,16.7z"/>
		<path d="M208.2,13.9h-1.6v-0.7h4v0.7h-1.6V19h-0.7L208.2,13.9z"/>
		<path d="M211.5,13.3h3.1v0.6h-2.4v1.7h2.4v0.6h-2.4v2.2h2.4V19h-3.1V13.3z"/>
		<path d="M221.5,16.1v0.2c0,1.8-1.1,2.9-2.9,2.9c-0.5,0-1-0.1-1.5-0.4c-1-0.5-1.5-1.6-1.5-2.6c0-0.9,0.3-1.7,0.9-2.3
			c0.6-0.5,1.3-0.8,2.1-0.8c1-0.1,1.9,0.4,2.5,1.2l-0.6,0.5c-0.4-0.7-1.1-1.1-1.9-1.1c-1.3,0-2.3,1-2.3,2.5c0,1.4,0.9,2.4,2.3,2.4
			c1.1,0,2-0.8,2.1-1.9h-1.6v-0.6H221.5z"/>
		<path d="M223.8,16.4l-2-3.1h0.8l1.5,2.5l1.5-2.5h0.8l-2,3.1V19h-0.7L223.8,16.4z"/>
		<path d="M233.1,18.4c-0.5,0.5-1.1,0.8-1.8,0.8c-0.9,0.1-1.6-0.6-1.7-1.5c0-0.1,0-0.1,0-0.2c0-0.7,0.4-1.3,1.3-1.8l-0.2-0.3
			c-0.2-0.3-0.4-0.6-0.4-1c0-0.7,0.5-1.2,1.2-1.2c0,0,0.1,0,0.1,0c0.8,0,1.3,0.5,1.3,1.2c0,0.6-0.4,1-1.1,1.4l1.3,1.5
			c0.2-0.3,0.5-0.6,0.7-0.9l0.4,0.5c-0.2,0.3-0.5,0.6-0.8,0.9l0.9,1.1h-0.8L233.1,18.4z M231.3,16.2l-0.2,0.1
			c-0.5,0.4-0.8,0.7-0.8,1.2c0,0.6,0.4,1,1,1.1c0,0,0,0,0,0c0.5,0,1-0.3,1.3-0.7L231.3,16.2z M231.8,15.4c0.3-0.2,0.5-0.5,0.5-0.8
			c0-0.3-0.3-0.6-0.6-0.7c0,0-0.1,0-0.1,0c-0.4,0-0.7,0.3-0.7,0.6c0,0,0,0,0,0.1c0,0.2,0.1,0.4,0.2,0.5l0.4,0.4L231.8,15.4z"/>
		<path d="M240.9,13.8c-1.3,0-2.4,1.1-2.4,2.4c0,1.3,1.1,2.4,2.4,2.4l0,0c0.7,0,1.4-0.3,1.9-0.9v0.9c-0.6,0.4-1.3,0.6-2,0.6
			c-0.6,0-1.2-0.2-1.7-0.5c-1.4-1-1.7-2.9-0.7-4.3c0.1-0.1,0.2-0.3,0.3-0.4c0.6-0.6,1.3-0.9,2.2-0.9c0.7,0,1.3,0.2,1.9,0.6v0.9
			C242.4,14.1,241.7,13.8,240.9,13.8z"/>
		<path d="M249.3,18.3c-1.2,1.2-3.2,1.2-4.4,0c-1.2-1.2-1.2-3.1-0.1-4.2c0,0,0,0,0.1-0.1c1.2-1.2,3.2-1.2,4.4,0
			C250.4,15.2,250.5,17.1,249.3,18.3C249.3,18.3,249.3,18.3,249.3,18.3z M248.7,17.9c0.5-0.4,0.7-1,0.7-1.7c0-0.6-0.3-1.2-0.7-1.7
			c-0.9-0.9-2.4-0.9-3.3,0c0,0,0,0,0,0c-0.5,0.4-0.7,1.1-0.7,1.7c0,0.6,0.3,1.2,0.7,1.7C246.3,18.8,247.8,18.8,248.7,17.9
			C248.7,17.9,248.7,17.9,248.7,17.9z"/>
		<path d="M251.5,13.1l4.2,4.6v-4.4h0.7v6l-4.2-4.6V19h-0.7L251.5,13.1z"/>
		<path d="M260.7,13.8c-1.3,0-2.3,1.1-2.3,2.4c0,0,0,0,0,0.1c0,0.5,0.1,1,0.4,1.4c0.4,0.6,1.2,1,1.9,1c0.7,0,1.4-0.3,1.9-0.9v0.9
			c-0.6,0.4-1.2,0.6-1.9,0.6c-0.6,0-1.2-0.2-1.7-0.5c-1.4-1-1.7-2.9-0.8-4.3c0.1-0.1,0.2-0.3,0.3-0.4c0.6-0.6,1.3-0.9,2.2-0.9
			c0.7,0,1.4,0.2,1.9,0.6v0.9C262.2,14.1,261.5,13.8,260.7,13.8z"/>
		<path d="M264,13.3h3.1v0.6h-2.4v1.7h2.4v0.6h-2.4v2.2h2.4V19H264V13.3z"/>
		<path d="M269.1,19h-0.7v-5.8h1.2c0.6,0,1.1,0,1.5,0.3c0.4,0.3,0.6,0.8,0.6,1.3c0,0.5-0.2,1-0.6,1.3c-0.4,0.3-0.9,0.3-1.5,0.3h-0.5
			L269.1,19z M269.5,15.8c1,0,1.5-0.1,1.5-0.9s-0.5-1-1.5-1h-0.3v1.9H269.5z"/>
		<path d="M273.8,13.9h-1.6v-0.7h4v0.7h-1.6V19h-0.7V13.9z"/>
		<rect y="0" class="st0" width="64" height="64"/>
		<rect x="175.9" y="13.1" class="st0" width="2.1" height="38.2"/>
		<path class="st1" d="M77.9,30.9v-3.1h1.8V16.3H78v-3.2h5.2v6.6c0.8-1.1,2.4-1.7,4.1-1.7c3.7,0,6.1,2.1,6.1,6.7
			c0,4.3-2.7,6.5-6.5,6.5c-1.3,0-3-0.5-3.8-1.7L83,30.9L77.9,30.9z M83.4,24.5c0,2.6,2,3.3,3.2,3.3c1.7,0.1,3.1-1.3,3.2-2.9
			c0-0.1,0-0.2,0-0.3c0-2.3-1.5-3.4-3.3-3.4c-1.7,0-3.1,1.4-3.1,3.1C83.4,24.4,83.4,24.5,83.4,24.5L83.4,24.5z"/>
		<path class="st1" d="M93.7,13.1h5.1v14.6h1.5v3.2h-6.7v-3.2h1.7V16.3h-1.6V13.1z"/>
		<path class="st1" d="M114.7,27.7h1.8v3.2H112l-0.4-1.6c-1.1,1.1-2.6,1.8-4.1,1.8c-4.6,0-5.7-2.8-5.7-6.4v-3.3h-1.6v-3.2h5.1v6.4
			c0,1.8,0.6,3,3,3c1.7,0,2.8-1.5,2.8-3.2v-3h-1.9v-3.2h5.4V27.7z"/>
		<path class="st1" d="M128.9,29.2c-1.4,1.3-3.6,2-5.5,2c-4.9,0-7-3-7-6.7c0-3.9,2.6-6.6,6.8-6.6s6.8,2.2,6.1,7.9H120
			c0.2,1.3,1.3,2.2,3.4,2.2c1.2,0,2.4-0.4,3.3-1.1L128.9,29.2z M126,23.1c0.1-1.5-1.2-2.2-2.8-2.2c-1.6,0-2.9,0.7-3.2,2.2H126z"/>
		<path class="st1" d="M132.8,16.7c0,0.9-0.7,1.7-1.6,1.8c-0.9,0-1.7-0.7-1.8-1.6c0-0.1,0-0.1,0-0.2c0-0.9,0.7-1.7,1.6-1.8
			c0.9,0,1.7,0.7,1.8,1.6C132.8,16.6,132.8,16.6,132.8,16.7z M131.1,18.1c0.7,0,1.4-0.5,1.4-1.3c0,0,0-0.1,0-0.1
			c0-0.8-0.6-1.4-1.3-1.5c-0.8,0-1.4,0.6-1.5,1.3c0,0,0,0.1,0,0.1c-0.1,0.7,0.5,1.4,1.2,1.4C131,18.1,131,18.1,131.1,18.1
			L131.1,18.1z M130.5,15.8h0.8c0.3,0,0.6,0.2,0.6,0.5c0,0.3-0.2,0.6-0.5,0.6l0.5,0.6v0h-0.3l-0.5-0.6h-0.4v0.6h-0.3L130.5,15.8z
			 M131.2,16.7c0.2,0,0.3-0.1,0.4-0.3c0-0.2-0.1-0.3-0.3-0.4c0,0,0,0-0.1,0h-0.5v0.6H131.2z"/>
		<path class="st1" d="M102.2,38.4c-1.3,0-2.6,0.5-3.5,1.5l-0.3-1.2h-4.6v3.2h1.6v6.3h-3.7V33.6h-5.3v3.2h1.8V40
			c-0.9-1.2-2.4-1.5-3.9-1.5c-3.6,0-6.4,2.2-6.4,6.6c0,4.2,2.5,6.5,6.1,6.5c1.6,0.1,3.2-0.6,4.2-1.9l0.5,1.7h11.9v-3.2h-1.8v-3.3
			c0-2.2,1.4-3,2.8-3c0.8,0,1.6,0.2,2.3,0.7c0.3-1.1,0.9-2,1.7-2.8l0.1-0.1C104.7,38.8,103.5,38.4,102.2,38.4z M84.6,48.3
			c-1.8,0-3.1-1.1-3.1-3.2c0-2.4,1.6-3.4,3.3-3.4c1.2,0,3.2,0.5,3.2,3.3C88,47.3,86.3,48.3,84.6,48.3L84.6,48.3z"/>
		<path class="st1" d="M120.1,48.2v3.2h-4.8l-0.2-1.4c-1.4,1.4-3,1.8-4.6,1.8c-3.6,0-6-2.3-6-6.4c0-3.4,2.3-6.6,6.1-6.8
			c1.8,0,3.3,0.2,4.5,1.6l0.2-1.3h4.8v3.1h-1.6v6.3L120.1,48.2z M108,45.2c0,1.9,1.3,3.3,3.4,3.3c2.2,0,3.6-1.5,3.6-3.4
			c0-2-1.1-3.3-3.4-3.3C109.5,41.9,108,43.3,108,45.2L108,45.2z"/>
		<path class="st1" d="M123.8,52.9c0.1,2,1.6,2.7,3.4,2.8c1.6,0,3.3-0.5,3.3-2.2c0-1.2-0.9-2.3-3.2-2.3c-4.6,0-7-2.4-7-6.3
			c0-4.3,3.6-6.4,7-6.4c0.8,0,2.5,0.2,3.2,0.7l1.5-1.8l2.5,2l-1.6,1.8c1,1,1.5,2.3,1.5,3.7c0,2.1-0.9,3.6-2.6,4.6
			c2.4,1.4,2.5,3.2,2.5,4c0,3.9-3.4,5.4-7,5.4c-4.5,0-6.8-2.4-6.7-6L123.8,52.9z M123.8,44.9c0,1.7,1.1,3.2,3.4,3.2
			c2,0,3.5-1.2,3.5-3.2c0-1.9-1.3-3.2-3.4-3.2C125,41.7,123.8,43.3,123.8,44.9z"/>
		<path class="st1" d="M141.4,38.4c4.3,0,6.7,2.8,6.7,6.6c0,3.6-2.5,6.6-6.7,6.6s-6.7-2.8-6.7-6.6C134.8,41.2,137.4,38.4,141.4,38.4
			z M141.5,41.6c-2.1,0-3.2,1.5-3.2,3.5c0,1.8,1,3.3,3.1,3.3s3.1-1.5,3.2-3.3C144.7,43.1,143.4,41.6,141.5,41.6z"/>
		<path class="st1" d="M153.7,48.2h1.8v3.2h-7.2v-3.2h1.9v-6.3h-1.8v-3.2h4.9l0.3,1.3c0.9-0.9,2.2-1.5,3.6-1.4
			c3.4,0,5.4,1.6,5.4,6.1v3.5h1.8v3.2h-6.7v-3.2h1.4v-3.5c0-1.3-0.2-2.8-2.5-2.8c-1.7,0-2.8,1.1-2.8,3.1L153.7,48.2z"/>
		<path class="st2" d="M50.3,32.8h-0.1c0,0,0,0,0,0L50.3,32.8z"/>
		<path class="st2" d="M48.9,23.1c-0.1,0.2-0.3,0.6-0.5,0.9c0.9,1.9,1.5,3.8,1.7,5.9c0.5-0.1,0.9-0.2,1.4-0.4
			c-0.3-2.5-1.1-5-2.3-7.2C49.1,22.7,49,22.9,48.9,23.1z"/>
		<path class="st2" d="M51.2,35.9c-0.5,0-1-0.1-1.5-0.2c-2.1,9.8-11.8,16.1-21.6,14c-9.8-2.1-16.1-11.8-14-21.6s11.8-16.1,21.6-14
			c3.9,0.8,7.4,2.9,10,5.9c0.2-0.3,0.7-0.5,1.3-0.4c0.1,0,0.3,0.1,0.4,0.1c-6.7-8.5-19-10-27.6-3.3s-10,19-3.3,27.6s19,10,27.6,3.3
			c3.6-2.8,6.1-6.9,7.1-11.4L51.2,35.9z"/>
		<path class="st2" d="M55.4,31.9c0,0,4.1-1.7,7-0.1c-1-1.2-5.7-2.8-9.6-1.2c-5.1,2.2-8.9,0.6-8.9,0.6c5.1,4.9,12.6,3.2,16.3,1.8
			C56.7,33.3,55.4,31.9,55.4,31.9z"/>
		<path class="st2" d="M45.2,24.5c0.3,0,0.8,0,1.3,0.1c0.9,1.8,1.4,3.7,1.6,5.7c0.3,0,0.6-0.1,0.9-0.1c-0.2-2.1-0.8-4.1-1.7-6
			c0.2-0.4,0.5-0.9,0.7-1.2c0.3-0.5,0.3-1.2,0-1.7c-0.3-0.6-1.1-0.9-1.8-0.5c-0.4,0.2-0.7,0.7-0.7,1.1c-0.6-0.4-1.4-0.2-1.8,0.4
			c-0.3,0.4-0.3,0.9,0,1.3C44,24.1,44.6,24.5,45.2,24.5z"/>
		<path class="st2" d="M47.8,35.2c-0.8,3.6-2.9,6.9-5.9,9.1c-1.3,1-2.9,1.4-4.5,1.4c-0.3,0-0.7,0-1-0.1c-0.9-0.1-1.7-0.4-2.4-0.8
			c-3.6-2-4.9-6.6-2.9-10.2c0.1-0.2,0.2-0.4,0.4-0.6c2.1,1.1,4.6,1.3,6.9,0.8c2.9-0.7,4-0.1,4.5,1.1l0,0c0,0,0,0,0,0.1
			c0,0,0.1,0,0.1,0C43,36.1,43,36,43,36c0-0.4,0.1-0.7,0.3-1.1c0.2-0.6,0.4-1.3,0.6-2c0-0.1,0,0,0-0.1c0,0,0-0.1,0-0.1h0l-0.3-0.1
			c-0.1,0-0.2,0-0.3,0c-0.1-0.2-0.2-0.5-0.4-0.6c0-0.1-0.1-0.1-0.2,0c-0.1,0-0.1,0.1-0.1,0.2c0,0.1,0,0.3,0,0.5c0,0,0,0,0,0.1
			c-1,0.1-1.8,0.4-3.6,0.4c-2.5,0-3.2-1.6-3.2-1.6c1.6,0,3.2-0.4,4.5-1.1c0.8-0.5,1.8-0.8,2.8-0.8c0.1,0.2,0.2,0.3,0.2,0.5
			c0,0.1,0,0.1,0.1,0.1h0c0,0,0.1,0,0.1-0.1c0.1-0.2,0.2-0.4,0.2-0.6c0,0,0.4,0,0.6,0.1c0-0.3,0.1-0.5,0.1-0.8c0-0.1,0-0.1,0-0.2
			c0-0.2,0-0.3,0.1-0.5c0,0,0,0,0,0c0-0.4-0.2-0.8-0.6-1c-0.5-0.4-1.1-0.6-1.7-0.5l0,0h-0.1c0,0-1.9,0.3-3.3,0.4
			c-0.6,0-1.1,0-1.7-0.1l0,0h0c-0.3-0.1-0.4,0-1.7-0.8c-1.3-0.8-2.6-0.8-4-0.4c-1.8,0.6-4.9,0.1-4.9,0.1l0,0h-0.1
			c-1.3-0.3-2.7-0.6-3.9-1.1c-0.4-0.2-0.9-0.3-1.3-0.5l-0.1,0c-0.7,1-1.3,2-1.7,3.2c0.5-0.1,1.1-0.1,1.6-0.2
			c1.4-0.2,2.9-0.3,4.4-0.4c-1.6,0.2-3.1,0.5-4.6,0.8c-0.5,0.1-1.1,0.2-1.6,0.4s-1.1,0.3-1.6,0.4c-0.3,1-0.4,2.1-0.4,3.2
			c0,0.4,0,0.9,0,1.3c0.4-0.2,0.9-0.5,1.4-0.7c0.5-0.2,0.9-0.5,1.4-0.7c1.7-0.8,3.5-1.6,5.3-2.2c-1.9,1-3.6,2-5.3,3.1
			c-0.5,0.3-0.9,0.6-1.3,0.9c-0.4,0.3-0.9,0.6-1.3,0.9c-0.5,0.4-1.3,1-1.9,1.4c0.9,3.2,2.4,5.2,4.4,7.3c0.2-0.6,0.4-1.1,0.6-1.7v0
			c0.2-0.5,0.4-1,0.6-1.4c0.2-0.5,0.4-1,0.7-1.5c1.3-2.8,2.9-5.4,4.8-7.9c-1.7,2.8-3,5.8-4,8.9c-0.2,0.5-0.3,1.1-0.5,1.6
			c-0.1,0.2-0.1,0.4-0.2,0.6c-0.1,0.3-0.2,0.7-0.3,1c-0.1,0.6-0.3,1.1-0.4,1.7c-0.1,0.4-0.2,0.8-0.2,1.2c6.1,4.9,14.8,5.1,21.1,0.5
			c0.2-0.2,0.5-0.4,0.7-0.6c3-2.5,5-5.9,5.8-9.6C48.4,35.4,48.1,35.3,47.8,35.2z M34.2,27.6c-0.2,0.2-0.2,0.5-0.2,0.8
			c0,0.3,0.1,0.5,0.2,0.8c-0.1,0-0.3,0.1-0.5,0.1c-0.9,0-1.6-0.8-1.6-1.7c0,0,0,0,0,0L34.2,27.6z"/>
		<path class="st2" d="M44.9,20.6l0.1,0c-6.1-7.2-16.9-8-24.1-1.9c-4.4,3.8-6.6,9.5-5.8,15.3l0,0l0,0l0.9-0.5l0,0
			c-1-8.9,5.3-16.9,14.2-17.9c5.2-0.6,10.3,1.3,13.8,5.1C44.2,20.6,44.5,20.6,44.9,20.6z"/>
	</g>
</g>
</svg>
